<svg width="1064" height="709" viewBox="0 0 1064 709" fill="none" xmlns="http://www.w3.org/2000/svg">
<path d="M643.336 632.785H140.733C140.38 632.785 140.095 632.498 140.095 632.146C140.095 631.793 140.38 631.506 140.733 631.506H643.336C643.688 631.506 643.974 631.793 643.974 632.146C643.974 632.498 643.688 632.785 643.336 632.785Z" fill="#292929"/>
<path d="M923.267 632.555H778.356C778.004 632.555 777.718 632.268 777.718 631.915C777.718 631.563 778.004 631.276 778.356 631.276H923.267C923.619 631.276 923.905 631.563 923.905 631.915C923.905 632.268 923.619 632.555 923.267 632.555Z" fill="#292929"/>
<path d="M682.67 631.915H422.779C408.696 631.915 397.281 620.486 397.281 606.388V95.5642C397.281 81.466 408.696 70.0372 422.779 70.0372H682.669C696.751 70.0372 708.167 81.466 708.167 95.5642V606.388C708.168 620.486 696.752 631.915 682.67 631.915Z" fill="white"/>
<path d="M682.67 632.555H422.779C408.367 632.555 396.642 620.816 396.642 606.388V95.5642C396.642 81.1362 408.367 69.3981 422.779 69.3981H682.67C697.081 69.3981 708.806 81.1362 708.806 95.5642V606.388C708.806 620.816 697.081 632.555 682.67 632.555ZM422.779 70.6763C409.071 70.6763 397.919 81.8409 397.919 95.5642V606.388C397.919 620.112 409.071 631.276 422.779 631.276H682.67C696.377 631.276 707.529 620.112 707.529 606.388V95.5642C707.529 81.8409 696.377 70.6763 682.67 70.6763H422.779Z" fill="#292929"/>
<path d="M673.17 616.607H432.278C421.924 616.607 413.501 608.174 413.501 597.809V104.144C413.501 93.7785 421.924 85.3454 432.278 85.3454H673.17C683.524 85.3454 691.947 93.7785 691.947 104.144V597.809C691.947 608.174 683.524 616.607 673.17 616.607ZM432.278 86.6237C422.628 86.6237 414.777 94.4832 414.777 104.144V597.809C414.777 607.469 422.628 615.329 432.278 615.329H673.17C682.82 615.329 690.671 607.469 690.671 597.809V104.144C690.671 94.4832 682.82 86.6237 673.17 86.6237H432.278Z" fill="#292929"/>
<path d="M583.982 104.3H514.216V105.578H583.982V104.3Z" fill="#292929"/>
<path d="M631.831 369.247H465.134C456.633 369.247 449.742 362.348 449.742 353.838V251.508C449.742 242.998 456.634 236.099 465.134 236.099H631.831C640.332 236.099 647.223 242.998 647.223 251.508V353.837C647.223 362.348 640.332 369.247 631.831 369.247Z" fill="#E7ECF2"/>
<path d="M576.291 283.945C569.494 283.945 563.965 278.41 563.965 271.605C563.965 264.801 569.494 259.265 576.291 259.265C583.087 259.265 588.617 264.801 588.617 271.605C588.617 278.41 583.087 283.945 576.291 283.945ZM576.291 260.543C570.198 260.543 565.242 265.506 565.242 271.605C565.242 277.704 570.198 282.667 576.291 282.667C582.383 282.667 587.34 277.704 587.34 271.605C587.34 265.506 582.383 260.543 576.291 260.543Z" fill="#2FA8EC"/>
<path d="M631.827 369.886H465.138C456.297 369.886 449.104 362.685 449.104 353.834V337.138C449.104 337.04 449.126 336.943 449.17 336.854L479.276 275.945C483.916 266.548 494.069 260.475 505.142 260.475C510.621 260.475 515.961 261.944 520.584 264.722C525.189 267.499 528.831 271.448 531.114 276.142L563.719 343.557L564.476 345.113C566.838 350.014 571.89 353.057 577.661 353.057C583.398 353.057 588.441 350.037 590.823 345.176L602.035 322.291C605.3 315.613 612.483 311.297 620.333 311.297C624.129 311.297 627.831 312.296 631.039 314.186C634.258 316.083 636.83 318.781 638.473 321.99L647.791 340.154C647.837 340.245 647.861 340.345 647.861 340.447V353.834C647.861 362.685 640.668 369.886 631.827 369.886ZM450.381 337.288V353.834C450.381 361.98 457.001 368.608 465.138 368.608H631.827C639.965 368.608 646.585 361.98 646.585 353.834V340.601L637.337 322.574C635.804 319.581 633.403 317.061 630.391 315.288C627.38 313.513 623.902 312.576 620.333 312.576C612.967 312.576 606.234 316.61 603.182 322.854L591.969 345.739C589.371 351.042 583.889 354.336 577.661 354.336C571.395 354.336 565.903 351.016 563.327 345.671L562.57 344.116L529.965 276.701C527.79 272.23 524.318 268.466 519.925 265.818C515.502 263.159 510.389 261.754 505.141 261.754C494.55 261.754 484.847 267.547 480.42 276.512L450.381 337.288Z" fill="#2FA8EC"/>
<path d="M631.827 369.886H465.138C456.297 369.886 449.104 362.685 449.104 353.834V251.512C449.104 242.661 456.296 235.46 465.138 235.46H631.827C640.668 235.46 647.861 242.661 647.861 251.512V353.834C647.861 362.685 640.668 369.886 631.827 369.886ZM465.137 236.738C457 236.738 450.38 243.366 450.38 251.512V353.834C450.38 361.98 457 368.608 465.137 368.608H631.827C639.964 368.608 646.584 361.98 646.584 353.834V251.512C646.584 243.366 639.964 236.738 631.827 236.738H465.137Z" fill="#2FA8EC"/>
<path d="M458.727 395.454C463.689 395.454 467.712 391.427 467.712 386.459C467.712 381.491 463.689 377.464 458.727 377.464C453.765 377.464 449.742 381.491 449.742 386.459C449.742 391.427 453.765 395.454 458.727 395.454Z" fill="#2FA8EC"/>
<path d="M464.103 387.599C462.311 389.285 460.52 390.97 458.729 392.655C458.728 392.656 458.727 392.656 458.727 392.656C458.727 392.656 458.727 392.656 458.726 392.655C456.934 390.97 455.143 389.285 453.352 387.599C452.378 386.684 451.973 385.294 452.361 384.015C452.52 383.488 452.798 383.019 453.18 382.659C454.547 381.371 457.208 381.523 458.727 383.472C460.247 381.523 462.908 381.371 464.274 382.659C464.657 383.019 464.933 383.488 465.093 384.015C465.481 385.294 465.076 386.684 464.103 387.599Z" fill="white"/>
<path d="M458.729 392.655V392.659L458.727 392.657L458.729 392.655Z" fill="white"/>
<path d="M458.728 392.657L458.725 392.659V392.655L458.728 392.657Z" fill="white"/>
<path d="M491.252 387.72C492.047 382.816 488.72 378.196 483.822 377.4C478.924 376.604 474.309 379.934 473.514 384.838C472.719 389.742 476.045 394.362 480.944 395.158C485.842 395.954 490.457 392.624 491.252 387.72Z" fill="#2FA8EC"/>
<path d="M478.463 386.278C478.463 387.142 477.763 387.843 476.9 387.843C476.037 387.843 475.337 387.142 475.337 386.278C475.337 385.414 476.037 384.713 476.9 384.713C477.763 384.713 478.463 385.414 478.463 386.278Z" fill="white"/>
<path d="M483.932 386.278C483.932 387.142 483.232 387.843 482.369 387.843C481.506 387.843 480.807 387.142 480.807 386.278C480.807 385.414 481.506 384.713 482.369 384.713C483.233 384.714 483.932 385.414 483.932 386.278Z" fill="white"/>
<path d="M489.401 386.278C489.401 387.142 488.702 387.843 487.838 387.843C486.975 387.843 486.276 387.142 486.276 386.278C486.276 385.414 486.975 384.713 487.838 384.713C488.702 384.713 489.401 385.414 489.401 386.278Z" fill="white"/>
<path d="M584.329 202.139H449.742C449.389 202.139 449.103 201.853 449.103 201.5C449.103 201.147 449.389 200.861 449.742 200.861H584.329C584.681 200.861 584.967 201.147 584.967 201.5C584.967 201.853 584.681 202.139 584.329 202.139Z" fill="#292929"/>
<path d="M621.05 219.738H449.742C449.389 219.738 449.103 219.452 449.103 219.099C449.103 218.746 449.389 218.46 449.742 218.46H621.05C621.402 218.46 621.688 218.746 621.688 219.099C621.688 219.452 621.403 219.738 621.05 219.738Z" fill="#292929"/>
<path d="M631.831 564.01H465.134C456.633 564.01 449.742 557.111 449.742 548.601V446.272C449.742 437.761 456.634 430.862 465.134 430.862H631.831C640.332 430.862 647.223 437.761 647.223 446.272V548.601C647.223 557.111 640.332 564.01 631.831 564.01Z" fill="#E7ECF2"/>
<path d="M576.291 478.709C569.494 478.709 563.965 473.173 563.965 466.369C563.965 459.564 569.494 454.029 576.291 454.029C583.087 454.029 588.617 459.564 588.617 466.369C588.617 473.173 583.087 478.709 576.291 478.709ZM576.291 455.307C570.198 455.307 565.242 460.269 565.242 466.369C565.242 472.468 570.198 477.431 576.291 477.431C582.383 477.431 587.34 472.468 587.34 466.369C587.34 460.269 582.383 455.307 576.291 455.307Z" fill="#2FA8EC"/>
<path d="M631.827 564.649H465.138C456.297 564.649 449.104 557.449 449.104 548.598V531.901C449.104 531.803 449.126 531.706 449.17 531.618L479.276 470.709C483.916 461.311 494.068 455.239 505.142 455.239C510.621 455.239 515.961 456.707 520.584 459.486C525.189 462.262 528.831 466.211 531.114 470.906L563.719 538.321L564.476 539.877C566.838 544.778 571.89 547.821 577.661 547.821C583.398 547.821 588.441 544.801 590.823 539.94L602.035 517.055C605.3 510.376 612.483 506.061 620.333 506.061C624.129 506.061 627.831 507.06 631.039 508.95C634.259 510.846 636.83 513.545 638.473 516.754L647.791 534.918C647.837 535.008 647.861 535.108 647.861 535.21V548.598C647.861 557.448 640.668 564.649 631.827 564.649ZM450.381 532.051V548.598C450.381 556.744 457.001 563.371 465.138 563.371H631.827C639.965 563.371 646.585 556.744 646.585 548.598V535.364L637.337 517.337C635.804 514.345 633.403 511.825 630.391 510.051C627.38 508.277 623.902 507.339 620.333 507.339C612.967 507.339 606.234 511.373 603.182 517.616L591.969 540.502C589.371 545.805 583.889 549.099 577.661 549.099C571.395 549.099 565.903 545.779 563.327 540.434L562.57 538.879L529.965 471.464C527.79 466.994 524.318 463.23 519.925 460.581C515.502 457.923 510.389 456.517 505.141 456.517C494.55 456.517 484.846 462.31 480.42 471.276L450.381 532.051Z" fill="#2FA8EC"/>
<path d="M631.827 564.649H465.138C456.297 564.649 449.104 557.449 449.104 548.598V446.275C449.104 437.425 456.296 430.224 465.138 430.224H631.827C640.668 430.224 647.861 437.424 647.861 446.275V548.598C647.861 557.448 640.668 564.649 631.827 564.649ZM465.137 431.502C457 431.502 450.38 438.129 450.38 446.275V548.598C450.38 556.744 457 563.371 465.137 563.371H631.827C639.964 563.371 646.584 556.744 646.584 548.598V446.275C646.584 438.129 639.964 431.502 631.827 431.502H465.137Z" fill="#2FA8EC"/>
<path d="M458.727 590.218C463.689 590.218 467.712 586.191 467.712 581.223C467.712 576.255 463.689 572.228 458.727 572.228C453.765 572.228 449.742 576.255 449.742 581.223C449.742 586.191 453.765 590.218 458.727 590.218Z" fill="#2FA8EC"/>
<path d="M464.103 582.363C462.311 584.049 460.52 585.733 458.729 587.419C458.728 587.42 458.728 587.42 458.727 587.421C458.727 587.42 458.727 587.42 458.726 587.419C456.934 585.733 455.143 584.049 453.352 582.363C452.378 581.447 451.973 580.058 452.361 578.779C452.52 578.252 452.798 577.783 453.18 577.423C454.547 576.135 457.208 576.286 458.727 578.236C460.247 576.287 462.908 576.135 464.274 577.423C464.657 577.783 464.933 578.252 465.093 578.779C465.481 580.058 465.076 581.447 464.103 582.363Z" fill="white"/>
<path d="M458.729 587.419V587.423L458.727 587.42L458.729 587.419Z" fill="white"/>
<path d="M458.728 587.42L458.725 587.423V587.419L458.728 587.42Z" fill="white"/>
<path d="M482.369 590.037C487.332 590.037 491.354 586.009 491.354 581.042C491.354 576.074 487.332 572.047 482.369 572.047C477.407 572.047 473.385 576.074 473.385 581.042C473.385 586.009 477.407 590.037 482.369 590.037Z" fill="#2FA8EC"/>
<path d="M476.901 582.606C477.763 582.606 478.463 581.906 478.463 581.042C478.463 580.178 477.763 579.478 476.901 579.478C476.038 579.478 475.338 580.178 475.338 581.042C475.338 581.906 476.038 582.606 476.901 582.606Z" fill="white"/>
<path d="M482.37 582.606C483.232 582.606 483.932 581.906 483.932 581.042C483.932 580.178 483.232 579.478 482.37 579.478C481.507 579.478 480.807 580.178 480.807 581.042C480.807 581.906 481.507 582.606 482.37 582.606Z" fill="white"/>
<path d="M487.839 582.606C488.701 582.606 489.401 581.906 489.401 581.042C489.401 580.178 488.701 579.478 487.839 579.478C486.976 579.478 486.276 580.178 486.276 581.042C486.276 581.906 486.976 582.606 487.839 582.606Z" fill="white"/>
<path d="M621.05 414.502H449.742C449.389 414.502 449.103 414.215 449.103 413.863C449.103 413.51 449.389 413.223 449.742 413.223H621.05C621.402 413.223 621.688 413.51 621.688 413.863C621.688 414.215 621.403 414.502 621.05 414.502Z" fill="#292929"/>
<path d="M602.69 143.453H541.154C540.801 143.453 540.515 143.167 540.515 142.814C540.515 142.46 540.801 142.174 541.154 142.174H602.69C603.042 142.174 603.328 142.46 603.328 142.814C603.328 143.166 603.042 143.453 602.69 143.453Z" fill="#292929"/>
<path d="M628.863 161.052H541.154C540.801 161.052 540.515 160.766 540.515 160.413C540.515 160.059 540.801 159.773 541.154 159.773H628.863C629.216 159.773 629.502 160.059 629.502 160.413C629.502 160.765 629.216 161.052 628.863 161.052Z" fill="#292929"/>
<path d="M522.723 151.613C522.723 158.155 520.251 164.12 516.194 168.621C511.549 173.768 504.833 177.001 497.364 177.001C489.889 177.001 483.168 173.762 478.528 168.615C474.476 164.115 472.004 158.155 472.004 151.613C472.004 137.594 483.355 126.225 497.364 126.225C511.367 126.225 522.723 137.593 522.723 151.613Z" fill="white"/>
<path d="M497.364 177.64C490.017 177.64 482.979 174.506 478.054 169.043C473.741 164.252 471.366 158.062 471.366 151.613C471.366 137.261 483.029 125.585 497.364 125.585C511.699 125.585 523.362 137.261 523.362 151.613C523.362 158.068 520.985 164.26 516.668 169.048C511.74 174.509 504.705 177.64 497.364 177.64ZM497.364 126.864C483.733 126.864 472.643 137.967 472.643 151.613C472.643 157.746 474.902 163.632 479.003 168.187C483.685 173.382 490.378 176.362 497.364 176.362C504.344 176.362 511.035 173.384 515.72 168.192C519.825 163.639 522.085 157.752 522.085 151.613C522.085 137.967 510.995 126.864 497.364 126.864Z" fill="#2FA8EC"/>
<path d="M497.362 159.84C503.464 159.84 508.412 154.888 508.412 148.778C508.412 142.669 503.464 137.716 497.362 137.716C491.26 137.716 486.313 142.669 486.313 148.778C486.313 154.888 491.26 159.84 497.362 159.84Z" fill="#2FA8EC"/>
<path d="M516.194 168.621C511.549 173.768 504.833 177.001 497.364 177.001C489.89 177.001 483.168 173.762 478.529 168.615C479.33 167.295 480.285 166.082 481.369 164.997C484.679 161.683 489.185 159.572 494.188 159.374H494.193C494.449 159.363 494.705 159.358 494.962 159.358H499.767C500.023 159.358 500.279 159.363 500.535 159.374H500.541C507.177 159.636 512.948 163.27 516.194 168.621Z" fill="#2FA8EC"/>
<path d="M774.687 370.942C774.687 395.411 765.255 417.699 749.792 434.444C747.593 436.822 745.276 439.092 742.845 441.237C726.015 456.094 703.824 465.121 679.497 465.121C626.926 465.121 584.306 422.954 584.306 370.943C584.306 346.874 593.43 324.919 608.447 308.268C610.614 305.863 612.909 303.57 615.313 301.394C632.238 286.097 654.765 276.764 679.497 276.764C732.068 276.764 774.687 318.93 774.687 370.942Z" fill="white"/>
<path d="M679.497 465.76C653.902 465.76 629.839 455.898 611.74 437.99C593.638 420.081 583.669 396.269 583.669 370.942C583.669 347.629 592.3 325.218 607.973 307.839C610.126 305.451 612.451 303.123 614.885 300.92C632.575 284.93 655.521 276.125 679.497 276.125C705.092 276.125 729.155 285.987 747.255 303.894C765.356 321.803 775.326 345.615 775.326 370.942C775.326 394.668 766.424 417.374 750.261 434.878C748.033 437.287 745.68 439.588 743.267 441.716C725.704 457.221 703.057 465.76 679.497 465.76ZM679.497 277.403C655.838 277.403 633.196 286.092 615.741 301.868C613.339 304.042 611.045 306.34 608.921 308.695C593.46 325.839 584.946 347.946 584.946 370.942C584.946 422.52 627.361 464.481 679.497 464.481C702.746 464.481 725.093 456.056 742.423 440.756C744.804 438.657 747.126 436.387 749.325 434.009C765.269 416.742 774.05 394.344 774.05 370.942C774.049 319.364 731.633 277.403 679.497 277.403Z" fill="#292929"/>
<path d="M762.608 370.942C762.608 392.305 754.372 411.765 740.872 426.386C738.952 428.462 736.929 430.444 734.806 432.316C720.112 445.288 700.737 453.169 679.497 453.169C633.598 453.169 596.386 416.354 596.386 370.943C596.386 349.929 604.352 330.759 617.463 316.221C619.356 314.122 621.359 312.12 623.458 310.22C638.235 296.864 657.904 288.715 679.497 288.715C725.396 288.715 762.608 325.531 762.608 370.942Z" fill="#EBEDF0"/>
<path d="M740.872 426.386C738.952 428.462 736.929 430.444 734.806 432.316L617.463 316.221C619.356 314.121 621.359 312.119 623.458 310.219L740.872 426.386Z" fill="white"/>
<path d="M679.61 313.802H679.385C664.087 313.802 651.686 326.218 651.686 341.533V360.741H707.305V341.533C707.305 326.218 694.908 313.802 679.61 313.802ZM696.49 354.298H662.506V342.559C662.506 333.204 670.082 325.62 679.426 325.62H679.564C688.914 325.62 696.489 333.204 696.489 342.559L696.49 354.298Z" fill="white"/>
<path d="M707.943 351.517H695.852V342.557C695.852 333.57 688.545 326.259 679.564 326.259H679.428C670.449 326.259 663.144 333.57 663.144 342.557V351.517H651.048V341.534C651.048 325.889 663.76 313.162 679.385 313.162H679.61C695.233 313.162 707.943 325.889 707.943 341.534L707.943 351.517ZM697.128 350.239H706.666V341.534C706.666 326.594 694.529 314.44 679.611 314.44H679.385C664.464 314.44 652.326 326.594 652.326 341.534V350.239H661.868V342.557C661.868 332.866 669.745 324.981 679.428 324.981H679.564C689.249 324.981 697.129 332.866 697.129 342.557L697.128 350.239Z" fill="#292929"/>
<path d="M697.129 351.517H661.867V342.557C661.867 332.866 669.745 324.981 679.428 324.981H679.564C689.249 324.981 697.129 332.866 697.129 342.557V351.517ZM663.144 350.239H695.852V342.557C695.852 333.57 688.545 326.259 679.564 326.259H679.428C670.449 326.259 663.144 333.57 663.144 342.557V350.239Z" fill="#292929"/>
<path d="M709.337 415.111H649.658C644.178 415.111 639.736 410.664 639.736 405.178V359.698C639.736 354.212 644.178 349.765 649.658 349.765H709.337C714.816 349.765 719.259 354.212 719.259 359.698V405.178C719.258 410.664 714.816 415.111 709.337 415.111Z" fill="white"/>
<path d="M709.337 415.75H649.658C643.835 415.75 639.098 411.007 639.098 405.178V359.698C639.098 353.868 643.835 349.125 649.658 349.125H709.337C715.16 349.125 719.897 353.868 719.897 359.698V405.178C719.897 411.007 715.159 415.75 709.337 415.75ZM649.658 350.404C644.539 350.404 640.374 354.573 640.374 359.698V405.178C640.374 410.302 644.539 414.472 649.658 414.472H709.337C714.455 414.472 718.62 410.303 718.62 405.178V359.698C718.62 354.573 714.456 350.404 709.337 350.404H649.658Z" fill="#292929"/>
<path d="M709.337 415.75H649.658C643.835 415.75 639.098 411.007 639.098 405.178V359.698C639.098 353.868 643.835 349.125 649.658 349.125H709.337C715.16 349.125 719.897 353.868 719.897 359.698V405.178C719.897 411.007 715.159 415.75 709.337 415.75ZM649.658 350.404C644.539 350.404 640.374 354.573 640.374 359.698V405.178C640.374 410.302 644.539 414.472 649.658 414.472H709.337C714.455 414.472 718.62 410.303 718.62 405.178V359.698C718.62 354.573 714.456 350.404 709.337 350.404H649.658Z" fill="#292929"/>
<path d="M679.497 402.584C677.593 402.584 676.05 401.038 676.05 399.132V388.318H682.945V399.132C682.944 401.038 681.401 402.584 679.497 402.584Z" fill="#292929"/>
<path d="M684.309 389.238H674.685C673.154 389.238 671.913 387.996 671.913 386.463V378.208C671.913 376.675 673.154 375.433 674.685 375.433H684.309C685.84 375.433 687.082 376.675 687.082 378.208V386.463C687.081 387.996 685.84 389.238 684.309 389.238Z" fill="#292929"/>
<path d="M388.847 155.221C392.507 154.693 397.413 154.658 401.561 157.342C413.411 165.01 409.656 188.787 408.22 197.966C407.13 204.933 397.934 258.662 356.76 274.019C352.599 275.571 329.02 283.698 313.563 271.778C311.248 269.992 308.269 267.695 306.509 263.715C299.656 248.221 323.496 234.865 344.994 194.408C356.303 173.126 360.048 157.393 374.014 154.009C379.797 152.608 385.148 153.875 388.847 155.221Z" fill="#292929"/>
<path d="M362.647 224.64H363.59L372.12 194.526L392.248 200.24L385.336 224.64H388.615L418.362 241.138L389.907 268.413L345.711 247.199L362.647 224.64Z" fill="white"/>
<path d="M363.874 222.954C366.623 213.478 369.371 204.002 372.12 194.526L392.247 200.24C390.055 208.114 387.862 215.989 385.669 223.863C396.567 229.621 407.464 235.38 418.362 241.138L389.907 268.413L345.711 247.199C351.765 239.117 357.819 231.036 363.874 222.954Z" fill="white"/>
<path d="M389.907 269.052C389.813 269.052 389.719 269.031 389.631 268.989L345.434 247.775C345.262 247.692 345.136 247.536 345.09 247.35C345.045 247.164 345.085 246.968 345.199 246.815L363.293 222.663L371.507 194.347C371.605 194.009 371.957 193.814 372.294 193.91L392.422 199.624C392.759 199.72 392.956 200.072 392.862 200.411L386.422 223.538L418.66 240.572C418.841 240.668 418.966 240.845 418.994 241.048C419.023 241.252 418.952 241.457 418.804 241.599L390.348 268.874C390.227 268.991 390.068 269.052 389.907 269.052ZM346.688 246.959L389.784 267.645L417.28 241.289L385.37 224.428C385.105 224.288 384.973 223.981 385.053 223.691L391.461 200.681L372.555 195.313L364.486 223.132C364.465 223.206 364.43 223.276 364.384 223.337L346.688 246.959Z" fill="#292929"/>
<path d="M384.761 223.863C389.442 224.145 397.454 225.109 406.254 229.015C443.54 245.568 461.754 300.215 448.028 314.174C444.499 317.763 436.663 320.895 416.546 314.477L384.761 223.863Z" fill="white"/>
<path d="M435.944 318.801C430.658 318.801 424.116 317.563 416.352 315.086C416.016 314.979 415.83 314.62 415.937 314.283C416.044 313.947 416.404 313.761 416.739 313.868C432.243 318.814 442.617 318.766 447.573 313.726C451.807 309.42 453.04 300.656 450.955 289.682C446.819 267.907 430.047 240.277 405.994 229.599C399.392 226.669 392.236 224.953 384.722 224.501C384.37 224.48 384.102 224.177 384.123 223.825C384.144 223.473 384.445 223.204 384.799 223.226C392.465 223.687 399.77 225.438 406.512 228.431C418.076 233.564 428.697 242.745 437.226 254.978C444.595 265.548 450.056 278.11 452.209 289.443C454.373 300.835 453.015 310.013 448.482 314.623C445.744 317.408 441.55 318.801 435.944 318.801Z" fill="#292929"/>
<path d="M424.519 293.249C424.019 295.055 425.419 296.826 427.289 296.753C435.166 296.446 443.044 296.14 450.921 295.834C452.81 295.747 454.433 294.463 454.953 292.643L467.164 249.988C467.707 248.091 466.138 246.255 464.182 246.498L438.354 249.699C437.247 249.836 436.33 250.628 436.031 251.704C432.194 265.553 428.357 279.401 424.519 293.249Z" fill="#292929"/>
<path d="M444.326 296.411L432.522 300.354L432.656 300.758L444.461 296.815L444.326 296.411Z" fill="#2FA8EC"/>
<path d="M421.088 434.789C413.65 511.062 385.95 570.557 362.75 609.092C354.244 605.389 344.653 600.418 334.912 593.738C317.436 581.76 305.958 568.73 298.617 558.449C317.742 523.896 336.874 489.343 356.003 454.79L335.723 368.419L416.242 321.448C421.717 351.38 425.438 390.151 421.088 434.789Z" fill="#2FA8EC"/>
<path d="M369.78 612.614C369.704 612.614 369.627 612.601 369.551 612.572C367.181 611.66 364.807 610.686 362.495 609.678C362.172 609.537 362.023 609.161 362.164 608.837C362.305 608.514 362.68 608.365 363.005 608.507C365.299 609.507 367.656 610.473 370.009 611.378C370.338 611.505 370.502 611.875 370.375 612.204C370.278 612.459 370.037 612.614 369.78 612.614Z" fill="#292929"/>
<path d="M349.017 632.416H349.017C339.155 632.41 329.796 630.35 321.2 626.293C298.355 615.52 288.797 594.028 285.748 585.288C285.297 584.003 285.419 582.575 286.085 581.371L298.945 558.14C299.051 557.948 299.248 557.824 299.467 557.812C299.687 557.794 299.895 557.899 300.022 558.078C309.64 571.547 321.798 583.368 336.158 593.212C344.701 599.068 354.031 604.214 363.891 608.507C364.059 608.58 364.188 608.723 364.244 608.898C364.3 609.074 364.278 609.264 364.183 609.422C359.586 617.065 354.66 624.708 349.543 632.14C349.424 632.313 349.227 632.416 349.017 632.416ZM299.573 559.64L287.201 581.99C286.712 582.874 286.622 583.922 286.953 584.864C289.949 593.454 299.337 614.569 321.743 625.136C330.072 629.068 339.133 631.085 348.682 631.137C353.577 624.016 358.294 616.703 362.713 609.386C353.026 605.12 343.853 600.036 335.437 594.266C321.245 584.538 309.184 572.892 299.573 559.64Z" fill="#292929"/>
<path d="M407.452 607.398H407.448C398.947 609.39 389.285 611.128 378.596 612.197C365.545 613.496 353.761 613.518 343.666 612.95C334.163 560.201 327.231 499.77 326.336 432.97C325.857 397.056 327.173 363.226 329.667 331.751L392.936 361.452C391.319 363.922 389.706 366.397 388.089 368.872C388.816 401.615 390.362 435.751 392.936 471.156C396.417 519.138 401.428 564.618 407.452 607.398Z" fill="#2FA8EC"/>
<path d="M356.257 613.942C352.038 613.942 347.825 613.825 343.63 613.589C343.335 613.573 343.09 613.355 343.037 613.065C332.336 553.66 326.502 493.071 325.697 432.979C325.693 432.626 325.974 432.336 326.327 432.331C326.33 432.331 326.333 432.331 326.336 432.331C326.684 432.331 326.969 432.611 326.974 432.961C327.776 492.815 333.573 553.165 344.204 612.34C355.611 612.955 367.157 612.694 378.533 611.561C388.192 610.595 397.872 608.985 407.303 606.776C407.645 606.696 407.99 606.909 408.07 607.253C408.15 607.596 407.937 607.94 407.594 608.021C398.109 610.242 388.374 611.862 378.659 612.833C371.236 613.572 363.739 613.942 356.257 613.942Z" fill="#292929"/>
<path d="M407.452 608.037C407.109 608.037 406.827 607.766 406.812 607.426C401.134 562.316 396.252 516.489 392.299 471.211C390.361 449.011 388.607 426.478 387.084 404.24C387.069 404.024 387.165 403.815 387.338 403.684L392.654 399.693C392.936 399.482 393.337 399.539 393.548 399.821C393.76 400.104 393.702 400.505 393.42 400.716L388.382 404.499C389.899 426.617 391.644 449.022 393.571 471.1C397.524 516.378 402.407 562.209 408.086 607.319C408.109 607.501 408.052 607.683 407.932 607.821C407.811 607.959 407.636 608.037 407.452 608.037Z" fill="#292929"/>
<path d="M432.287 631.17C432.014 631.563 430.862 631.964 429.691 631.91C428.238 631.844 426.785 631.777 425.332 631.777H347.223C346.005 625.617 344.817 619.342 343.666 612.951C353.762 613.518 365.545 613.496 378.596 612.197C389.285 611.128 398.947 609.39 407.448 607.399H407.452C427.983 624.273 433.093 630.01 432.287 631.17Z" fill="white"/>
<path d="M429.89 632.554C429.813 632.554 429.737 632.552 429.662 632.549C428.24 632.484 426.77 632.416 425.332 632.416H346.698L346.597 631.901C345.367 625.685 344.17 619.348 343.037 613.064L342.894 612.267L343.701 612.312C355.271 612.963 366.99 612.71 378.533 611.561C388.192 610.594 397.872 608.985 407.303 606.775L407.449 606.759H407.677L407.858 606.904C417.379 614.729 424.264 620.724 428.32 624.721C432.88 629.215 433.42 630.659 432.811 631.534C432.354 632.192 431.014 632.554 429.89 632.554ZM347.747 631.138H425.332C426.799 631.138 428.284 631.206 429.72 631.272C430.686 631.315 431.503 631.009 431.728 630.834C431.673 629.95 429.02 625.965 407.29 608.092C397.901 610.277 388.27 611.872 378.659 612.833C367.319 613.962 355.81 614.231 344.437 613.633C345.494 619.475 346.607 625.357 347.747 631.138Z" fill="#292929"/>
<path d="M423.205 302.052L426.016 317.528C426.796 321.822 423.861 325.906 419.546 326.531L331.18 339.328C330.826 339.365 327.712 339.639 325.429 337.206C323.319 334.959 323.569 332.161 323.612 331.751C324.621 316.699 325.63 301.648 326.64 286.596L423.205 302.052Z" fill="white"/>
<path d="M330.581 339.994C329.337 339.994 326.893 339.699 324.963 337.644C322.78 335.318 322.892 332.494 322.978 331.684L326.002 286.553L327.276 286.639L324.249 331.795C324.196 332.299 324.036 334.79 325.894 336.769C327.946 338.956 330.795 338.726 331.113 338.693L419.455 325.899C421.368 325.622 423.044 324.604 424.173 323.033C425.302 321.461 425.734 319.547 425.388 317.643L422.577 302.167L423.833 301.939L426.644 317.415C427.052 319.664 426.543 321.924 425.209 323.78C423.876 325.635 421.897 326.837 419.637 327.164L331.271 339.961C331.139 339.974 330.899 339.994 330.581 339.994Z" fill="#292929"/>
<path d="M363.873 222.954C340.198 222.999 330.173 231.75 326.337 235.985C298.257 266.985 335.306 350.146 366.9 352.056C372.471 352.393 376.982 350.157 383.55 346.904C406.146 335.709 415.989 315.318 419.27 307.507C422.579 307.395 427.718 306.826 433.497 304.476C439.149 302.178 443.165 299.092 445.606 296.899L363.873 222.954Z" fill="white"/>
<path d="M367.989 352.728C367.617 352.728 367.242 352.717 366.862 352.694C349.947 351.671 333.334 329.001 324.373 306.987C318.974 293.722 315.913 279.817 315.754 267.833C315.573 254.218 319.069 243.057 325.864 235.556C333.681 226.926 346.824 222.347 363.872 222.315H363.873C364.225 222.315 364.511 222.6 364.511 222.953C364.512 223.306 364.227 223.592 363.874 223.593C347.195 223.625 334.379 228.059 326.81 236.415C320.236 243.672 316.854 254.531 317.03 267.817C317.187 279.645 320.215 293.385 325.555 306.505C330.466 318.569 337.125 329.636 344.309 337.668C351.967 346.232 359.792 350.987 366.938 351.419C372.337 351.742 376.686 349.591 383.266 346.332C404.145 335.988 414.416 317.411 418.681 307.259C418.778 307.029 418.999 306.876 419.248 306.868C424.073 306.706 428.786 305.702 433.257 303.884C437.643 302.101 441.654 299.591 445.179 296.424C445.442 296.188 445.845 296.21 446.081 296.473C446.316 296.736 446.294 297.14 446.032 297.375C442.397 300.641 438.261 303.229 433.737 305.068C429.253 306.891 424.533 307.921 419.699 308.13C415.273 318.523 404.827 337.075 383.832 347.476C377.745 350.494 373.233 352.728 367.989 352.728Z" fill="#292929"/>
<path d="M407.465 327.239C407.254 327.239 407.048 327.135 406.926 326.944L389.672 299.972C389.486 299.682 389.564 299.297 389.847 299.101L429.805 271.523C430.096 271.322 430.493 271.396 430.693 271.686C430.893 271.977 430.82 272.375 430.53 272.575L391.08 299.803L408.002 326.255C408.192 326.552 408.106 326.947 407.809 327.137C407.702 327.206 407.583 327.239 407.465 327.239Z" fill="#292929"/>
<path d="M372.955 306.631C372.756 306.631 372.56 306.537 372.435 306.363L354.619 281.339C352.989 279.049 352.963 275.954 354.554 273.638L355.477 272.294C355.676 272.003 356.074 271.928 356.365 272.129C356.655 272.329 356.729 272.727 356.529 273.018L355.606 274.362C354.318 276.238 354.339 278.744 355.659 280.597L373.475 305.621C373.679 305.909 373.613 306.308 373.326 306.513C373.213 306.592 373.083 306.631 372.955 306.631Z" fill="#292929"/>
<path d="M360.241 319.965C360.034 319.965 359.83 319.864 359.707 319.677C359.514 319.382 359.596 318.985 359.891 318.792L389.86 299.093C390.155 298.9 390.551 298.982 390.744 299.277C390.937 299.572 390.855 299.968 390.56 300.162L360.591 319.86C360.483 319.931 360.361 319.965 360.241 319.965Z" fill="#292929"/>
<path d="M412.307 284.811C412.207 284.811 412.105 284.787 412.01 284.737C411.698 284.573 411.579 284.186 411.743 283.874C412.669 282.116 414.692 277.398 413.498 271.572C412.268 265.568 408.382 261.993 406.769 260.734C406.491 260.517 406.441 260.116 406.658 259.837C406.874 259.559 407.275 259.509 407.554 259.726C409.279 261.072 413.433 264.894 414.749 271.315C415.98 277.321 414.102 282.135 412.872 284.47C412.758 284.687 412.537 284.811 412.307 284.811Z" fill="#292929"/>
<path d="M371.716 184.546C372.758 184.212 373.339 184.802 374.069 184.614C375.765 184.177 377.065 179.678 375.679 162.646C385.265 163.656 394.851 164.666 404.437 165.676C407.969 188.415 405.345 206.956 396.264 211.135C393.244 212.524 390 212.101 389.604 212.044C384.178 211.273 379.383 206.805 376.026 199.972C373.447 200.312 370.521 197.689 369.265 193.767C367.912 189.543 369.01 185.415 371.716 184.546Z" fill="white"/>
<path d="M391.258 212.787C390.391 212.787 389.756 212.711 389.514 212.677C384.096 211.907 379.183 207.638 375.645 200.639C372.86 200.702 369.922 197.912 368.657 193.962C367.2 189.409 368.484 184.912 371.522 183.938C372.272 183.696 372.857 183.833 373.284 183.933C373.575 184.001 373.747 184.037 373.91 183.995C374.753 183.778 376.553 181.268 375.043 162.698L374.98 161.929L404.992 165.092L405.068 165.578C408.842 189.877 405.571 207.556 396.531 211.716C394.626 212.592 392.645 212.787 391.258 212.787ZM376.397 199.278L376.599 199.689C379.958 206.525 384.608 210.688 389.694 211.412C390.26 211.492 393.228 211.828 395.997 210.554C404.309 206.729 407.39 189.369 403.881 166.26L376.377 163.361C377.826 181.861 375.995 184.777 374.228 185.233C373.755 185.354 373.351 185.26 372.994 185.177C372.621 185.09 372.327 185.021 371.911 185.155C369.545 185.914 368.63 189.69 369.873 193.571C371.004 197.104 373.668 199.638 375.942 199.338L376.397 199.278Z" fill="#292929"/>
<path d="M378.313 245.732C374.658 245.732 370.704 244.88 366.75 243.186C358.903 239.825 351.674 233.408 346.395 225.116L347.472 224.429C358.641 241.971 376.239 247.613 386.139 242.779C386.379 242.664 386.623 242.537 386.87 242.399C388.519 241.473 390.011 240.191 391.305 238.59C394.49 234.663 395.966 229.497 396.644 225.855L397.899 226.09C397.194 229.877 395.65 235.26 392.297 239.395C390.901 241.122 389.285 242.508 387.494 243.513C387.223 243.666 386.953 243.806 386.693 243.93C384.23 245.133 381.377 245.732 378.313 245.732Z" fill="#292929"/>
<path d="M437.584 288.263C445.007 287.813 448.892 288.267 449.239 289.627C449.688 291.389 444.189 294.672 432.741 299.476L437.584 288.263Z" fill="white"/>
<path d="M431.984 294.172C447.009 287.92 449.505 285.675 449.239 284.778C448.968 283.865 445.532 283.327 428.352 286.596L431.984 294.172Z" fill="white"/>
<path d="M431.984 294.812C431.734 294.812 431.496 294.664 431.394 294.418C431.259 294.092 431.413 293.718 431.739 293.582C446.221 287.557 448.329 285.534 448.591 284.97C448.045 284.629 445.018 284.075 428.471 287.224C428.124 287.29 427.79 287.062 427.724 286.716C427.658 286.369 427.886 286.034 428.232 285.968C435.944 284.501 441.62 283.664 445.102 283.48C448.193 283.317 449.567 283.641 449.85 284.595C450.128 285.531 449.206 286.523 446.669 288.018C443.85 289.679 438.991 291.949 432.228 294.763C432.149 294.796 432.066 294.812 431.984 294.812Z" fill="#292929"/>
<path d="M439.886 301.204C448.671 295.327 449.965 293.664 449.672 293.194C449.373 292.716 447.096 292.939 436.521 297.45L439.886 301.204Z" fill="white"/>
<path d="M439.887 301.843C439.681 301.843 439.478 301.743 439.355 301.558C439.159 301.265 439.238 300.868 439.531 300.672C446.18 296.224 448.212 294.395 448.825 293.667C447.833 293.783 444.975 294.539 436.771 298.038C436.447 298.177 436.072 298.025 435.934 297.7C435.795 297.376 435.946 297 436.271 296.862C449.257 291.323 449.809 292.208 450.213 292.855C450.647 293.549 451.186 294.413 440.241 301.734C440.132 301.808 440.008 301.843 439.887 301.843Z" fill="#292929"/>
<path d="M426.838 280.838C447.951 277.032 451.408 277.803 451.661 278.716C451.915 279.634 449.328 282.111 428.655 289.929L426.838 280.838Z" fill="white"/>
<path d="M428.654 290.569C428.396 290.569 428.154 290.411 428.057 290.156C427.933 289.825 428.099 289.456 428.428 289.332C447.953 281.948 450.687 279.548 451.008 278.897C450.408 278.512 446.909 277.868 426.951 281.467C426.604 281.529 426.272 281.298 426.21 280.951C426.147 280.603 426.378 280.271 426.725 280.208C451.499 275.742 452.005 277.565 452.276 278.545C452.551 279.537 453.061 281.382 428.88 290.527C428.806 290.556 428.729 290.569 428.654 290.569Z" fill="#292929"/>
<path d="M396.8 161.326C397.494 162.74 399.917 168.103 397.672 173.658C394.557 181.366 383.789 186.141 376.459 182.346C371.937 180.005 369.581 174.847 369.484 170.295C369.388 165.791 371.518 162.524 372.39 161.326H396.8Z" fill="#292929"/>
<path d="M386.728 163.404C388.395 167.036 391.541 172.629 397.246 177.79C400.868 181.067 404.469 183.217 407.313 184.617C407.313 180.374 407.313 176.132 407.313 171.889C405.9 168.252 404.488 164.616 403.075 160.979L386.728 163.404Z" fill="#292929"/>
<path d="M376.284 196.015C376.128 196.015 375.972 195.958 375.848 195.843C375.131 195.171 374.49 194.421 373.941 193.615C372.934 192.134 372.239 190.476 371.875 188.685C371.805 188.339 372.028 188.001 372.374 187.931C372.721 187.861 373.056 188.084 373.126 188.43C373.456 190.054 374.085 191.556 374.996 192.895C375.492 193.624 376.072 194.302 376.721 194.91C376.978 195.151 376.991 195.556 376.75 195.813C376.625 195.947 376.455 196.015 376.284 196.015Z" fill="#292929"/>
<path d="M330.896 186.687L318.746 171.39C317.79 170.187 317.27 168.695 317.27 167.157V126.725C317.27 122.969 314.228 119.924 310.476 119.924H252.214C248.462 119.924 245.421 122.969 245.421 126.725V179.886C245.421 183.642 248.463 186.687 252.214 186.687L330.896 186.687Z" fill="white"/>
<path d="M330.896 187.326H252.214C248.116 187.326 244.783 183.989 244.783 179.886V126.725C244.783 122.623 248.116 119.285 252.214 119.285H310.477C314.575 119.285 317.908 122.623 317.908 126.725V167.157C317.908 168.544 318.383 169.906 319.246 170.992L331.396 186.289C331.548 186.481 331.578 186.744 331.471 186.965C331.365 187.186 331.142 187.326 330.896 187.326ZM252.214 120.563C248.82 120.563 246.059 123.328 246.059 126.725V179.886C246.059 183.284 248.821 186.048 252.214 186.048H329.573L318.247 171.788C317.205 170.477 316.632 168.832 316.632 167.157V126.725C316.632 123.327 313.871 120.563 310.477 120.563H252.214Z" fill="#292929"/>
<path d="M282.72 168.31C282.367 168.31 282.081 168.024 282.081 167.671V159.61C282.081 159.288 282.321 159.016 282.641 158.976C291.845 157.829 297.257 150.078 296.538 143.558C295.958 138.304 291.477 133.582 285.884 132.33C279.475 130.894 272.805 134.242 269.663 140.469C269.504 140.784 269.12 140.91 268.805 140.751C268.49 140.592 268.364 140.208 268.523 139.893C271.929 133.143 279.184 129.521 286.162 131.083C292.271 132.45 297.168 137.638 297.806 143.418C298.67 151.249 292.098 158.801 283.358 160.167V167.672C283.358 168.024 283.072 168.31 282.72 168.31Z" fill="#292929"/>
<path d="M282.809 175.829C282.456 175.829 282.17 175.543 282.17 175.189V171.851C282.17 171.498 282.456 171.212 282.809 171.212C283.162 171.212 283.447 171.498 283.447 171.851V175.189C283.447 175.542 283.161 175.829 282.809 175.829Z" fill="#292929"/>
<path d="M818.579 384.355H797.232C796.879 384.355 796.593 384.069 796.593 383.716C796.593 383.363 796.879 383.077 797.232 383.077H817.941V252.453H733.179C732.827 252.453 732.541 252.168 732.541 251.814C732.541 251.461 732.827 251.175 733.179 251.175H818.579C818.932 251.175 819.218 251.461 819.218 251.814V383.716C819.218 384.069 818.932 384.355 818.579 384.355Z" fill="#2FA8EC"/>
</svg>
